REM DIRINDEX 1\2,1\3,1\4,1\5\6,1\5\7,1\8
REM DIRNAME folder01,folder02,folder03,folder04,folder05,folder06,folder07,folder08
TITLE ""
FILE "064 Åy064ÅzUnit4 (0721 loathe_0732 yardstick).mp3" MP3
  TRACK 01 AUDIO
    TITLE "0:"
    INDEX 01 00:00:00
  TRACK 02 AUDIO
    TITLE "2:cjc115_2506"
    INDEX 01 00:00:07
  TRACK 03 AUDIO
    TITLE "0:"
    INDEX 01 00:01:17
  TRACK 04 AUDIO
    TITLE "3:cjc115_2507"
    INDEX 01 00:01:26
  TRACK 05 AUDIO
    TITLE "0:"
    INDEX 01 00:02:71
  TRACK 06 AUDIO
    TITLE "4:cjc115_2508"
    INDEX 01 00:03:04
  TRACK 07 AUDIO
    TITLE "0:"
    INDEX 01 00:06:12
  TRACK 08 AUDIO
    TITLE "2:cjc115_2509"
    INDEX 01 00:07:19
  TRACK 09 AUDIO
    TITLE "0:"
    INDEX 01 00:08:56
  TRACK 10 AUDIO
    TITLE "3:cjc115_2510"
    INDEX 01 00:08:64
  TRACK 11 AUDIO
    TITLE "0:"
    INDEX 01 00:11:58
  TRACK 12 AUDIO
    TITLE "4:cjc115_2511"
    INDEX 01 00:11:66
  TRACK 13 AUDIO
    TITLE "0:"
    INDEX 01 00:15:34
  TRACK 14 AUDIO
    TITLE "2:cjc115_2512"
    INDEX 01 00:16:40
  TRACK 15 AUDIO
    TITLE "0:"
    INDEX 01 00:17:70
  TRACK 16 AUDIO
    TITLE "3:cjc115_2513"
    INDEX 01 00:18:05
  TRACK 17 AUDIO
    TITLE "0:"
    INDEX 01 00:19:16
  TRACK 18 AUDIO
    TITLE "4:cjc115_2514"
    INDEX 01 00:19:20
  TRACK 19 AUDIO
    TITLE "0:"
    INDEX 01 00:23:04
  TRACK 20 AUDIO
    TITLE "2:cjc115_2515"
    INDEX 01 00:24:14
  TRACK 21 AUDIO
    TITLE "0:"
    INDEX 01 00:25:29
  TRACK 22 AUDIO
    TITLE "3:cjc115_2516"
    INDEX 01 00:25:37
  TRACK 23 AUDIO
    TITLE "0:"
    INDEX 01 00:28:08
  TRACK 24 AUDIO
    TITLE "4:cjc115_2517"
    INDEX 01 00:28:17
  TRACK 25 AUDIO
    TITLE "0:"
    INDEX 01 00:32:70
  TRACK 26 AUDIO
    TITLE "2:cjc115_2518"
    INDEX 01 00:34:04
  TRACK 27 AUDIO
    TITLE "0:"
    INDEX 01 00:35:21
  TRACK 28 AUDIO
    TITLE "3:cjc115_2519"
    INDEX 01 00:35:31
  TRACK 29 AUDIO
    TITLE "0:"
    INDEX 01 00:37:71
  TRACK 30 AUDIO
    TITLE "4:cjc115_2520"
    INDEX 01 00:38:04
  TRACK 31 AUDIO
    TITLE "0:"
    INDEX 01 00:42:06
  TRACK 32 AUDIO
    TITLE "2:cjc115_2521"
    INDEX 01 00:43:15
  TRACK 33 AUDIO
    TITLE "0:"
    INDEX 01 00:44:60
  TRACK 34 AUDIO
    TITLE "3:cjc115_2522"
    INDEX 01 00:44:67
  TRACK 35 AUDIO
    TITLE "0:"
    INDEX 01 00:47:21
  TRACK 36 AUDIO
    TITLE "4:cjc115_2523"
    INDEX 01 00:47:28
  TRACK 37 AUDIO
    TITLE "0:"
    INDEX 01 00:52:24
  TRACK 38 AUDIO
    TITLE "2:cjc115_2524"
    INDEX 01 00:53:29
  TRACK 39 AUDIO
    TITLE "0:"
    INDEX 01 00:54:25
  TRACK 40 AUDIO
    TITLE "3:cjc115_2525"
    INDEX 01 00:54:36
  TRACK 41 AUDIO
    TITLE "0:"
    INDEX 01 00:57:50
  TRACK 42 AUDIO
    TITLE "4:cjc115_2526"
    INDEX 01 00:57:60
  TRACK 43 AUDIO
    TITLE "0:"
    INDEX 01 01:02:06
  TRACK 44 AUDIO
    TITLE "2:cjc115_2527"
    INDEX 01 01:03:14
  TRACK 45 AUDIO
    TITLE "0:"
    INDEX 01 01:04:31
  TRACK 46 AUDIO
    TITLE "3:cjc115_2528"
    INDEX 01 01:04:43
  TRACK 47 AUDIO
    TITLE "0:"
    INDEX 01 01:06:43
  TRACK 48 AUDIO
    TITLE "4:cjc115_2529"
    INDEX 01 01:06:51
  TRACK 49 AUDIO
    TITLE "0:"
    INDEX 01 01:09:46
  TRACK 50 AUDIO
    TITLE "2:cjc115_2530"
    INDEX 01 01:10:55
  TRACK 51 AUDIO
    TITLE "0:"
    INDEX 01 01:12:13
  TRACK 52 AUDIO
    TITLE "3:cjc115_2531"
    INDEX 01 01:12:19
  TRACK 53 AUDIO
    TITLE "0:"
    INDEX 01 01:14:37
  TRACK 54 AUDIO
    TITLE "4:cjc115_2532"
    INDEX 01 01:14:45
  TRACK 55 AUDIO
    TITLE "0:"
    INDEX 01 01:17:55
  TRACK 56 AUDIO
    TITLE "2:cjc115_2533"
    INDEX 01 01:18:64
  TRACK 57 AUDIO
    TITLE "0:"
    INDEX 01 01:20:20
  TRACK 58 AUDIO
    TITLE "3:cjc115_2534"
    INDEX 01 01:20:26
  TRACK 59 AUDIO
    TITLE "0:"
    INDEX 01 01:22:66
  TRACK 60 AUDIO
    TITLE "4:cjc115_2535"
    INDEX 01 01:23:01
  TRACK 61 AUDIO
    TITLE "0:"
    INDEX 01 01:26:60
  TRACK 62 AUDIO
    TITLE "2:cjc115_2536"
    INDEX 01 01:27:67
  TRACK 63 AUDIO
    TITLE "0:"
    INDEX 01 01:29:27
  TRACK 64 AUDIO
    TITLE "3:cjc115_2537"
    INDEX 01 01:29:37
  TRACK 65 AUDIO
    TITLE "0:"
    INDEX 01 01:32:49
  TRACK 66 AUDIO
    TITLE "4:cjc115_2538"
    INDEX 01 01:32:53
  TRACK 67 AUDIO
    TITLE "0:"
    INDEX 01 01:36:09
  TRACK 68 AUDIO
    TITLE "2:cjc115_2539"
    INDEX 01 01:37:17
  TRACK 69 AUDIO
    TITLE "0:"
    INDEX 01 01:38:47
  TRACK 70 AUDIO
    TITLE "3:cjc115_2540"
    INDEX 01 01:38:55
  TRACK 71 AUDIO
    TITLE "0:"
    INDEX 01 01:42:12
  TRACK 72 AUDIO
    TITLE "4:cjc115_2541"
    INDEX 01 01:42:16
  TRACK 73 AUDIO
    TITLE "0:"
    INDEX 01 01:46:61
